
<?xml version="1.0" standalone="no"?>
<!DOCTYPE svg PUBLIC "-//W3C//DTD SVG 20010904//EN"
 "http://www.w3.org/TR/2001/REC-SVG-20010904/DTD/svg10.dtd">
<svg version="1.0" xmlns="http://www.w3.org/2000/svg"
 width="1323.000000pt" height="935.000000pt" viewBox="0 0 1323.000000 935.000000"
 preserveAspectRatio="xMidYMid meet">

<g transform="translate(0.000000,935.000000) scale(0.100000,-0.100000)"
fill="#000000" stroke="none">
<path d="M6470 8034 c-172 -37 -297 -136 -419 -333 -289 -466 -719 -1225 -763
-1348 -29 -81 -36 -227 -14 -313 56 -226 234 -400 456 -446 130 -27 187 -8
230 76 52 101 628 1094 665 1146 24 33 79 93 121 133 180 168 435 229 698 166
37 -9 70 -14 72 -12 5 5 -285 511 -358 623 -113 173 -249 274 -420 308 -93 19
-181 19 -268 0z"/>
<path d="M7091 6960 c-132 -35 -247 -113 -328 -223 -71 -98 -76 -83 168 -512
117 -203 265 -458 329 -565 142 -237 151 -253 185 -360 39 -122 47 -309 16
-430 -28 -115 -97 -251 -166 -327 -30 -33 -55 -63 -55 -66 0 -2 138 -8 308
-12 458 -10 609 8 751 92 124 74 236 231 272 383 18 77 16 222 -5 300 -24 94
-316 622 -691 1250 -124 207 -172 278 -219 325 -144 143 -360 198 -565 145z"/>
<path d="M5057 5992 c-20 -37 -82 -143 -137 -237 -126 -213 -246 -452 -265
-530 -18 -70 -20 -202 -4 -277 6 -29 29 -91 51 -138 54 -114 167 -228 279
-283 146 -72 129 -70 1024 -71 719 0 807 2 869 17 205 51 369 211 432 422 50
167 -2 427 -99 499 -28 21 -38 21 -750 26 -706 6 -724 6 -801 28 -264 74 -422
227 -523 510 -19 53 -35 98 -36 99 -1 1 -19 -28 -40 -65z"/>
<path d="M9346 3850 c-57 -12 -123 -36 -185 -66 -82 -41 -110 -61 -191 -143
-107 -108 -165 -199 -211 -334 -58 -168 -59 -191 -59 -1129 l0 -858 180 0 180
0 0 570 0 570 505 0 505 0 0 -570 0 -570 185 0 185 0 0 838 c0 510 -4 869 -10
919 -45 357 -239 631 -522 737 -156 59 -384 73 -562 36z m416 -357 c201 -73
308 -276 308 -585 l0 -98 -505 0 -505 0 0 53 c0 28 5 93 10 142 33 289 138
443 340 497 90 25 271 20 352 -9z"/>
<path d="M5090 3310 l0 -220 -275 0 -275 0 0 -175 0 -175 275 0 275 0 0 -393
c0 -489 -8 -543 -95 -615 -61 -50 -122 -64 -297 -70 l-158 -4 0 -169 0 -169
158 0 c116 0 182 5 252 20 200 41 350 148 424 302 67 139 66 127 66 1054 l0
834 -175 0 -175 0 0 -220z"/>
<path d="M3575 3114 c-155 -23 -272 -65 -387 -139 -183 -119 -315 -301 -368
-508 -31 -121 -40 -295 -40 -738 l0 -409 180 0 180 0 0 65 c0 36 2 65 4 65 2
0 29 -16 61 -35 157 -94 308 -130 510 -122 240 10 402 77 569 236 86 83 146
166 195 273 65 139 76 198 76 403 0 157 -3 191 -23 265 -85 309 -325 548 -622
620 -82 19 -273 33 -335 24z m256 -365 c127 -36 235 -129 304 -260 45 -86 65
-172 65 -284 0 -173 -51 -306 -160 -415 -107 -108 -212 -150 -372 -150 -172 0
-311 69 -457 227 l-73 78 5 175 c6 235 38 343 137 476 117 156 333 216 551
153z"/>
<path d="M6285 3110 c-292 -45 -529 -220 -666 -492 -120 -239 -126 -557 -14
-804 119 -262 353 -452 627 -508 99 -20 267 -20 366 0 352 72 635 367 698 725
21 120 14 300 -15 414 -78 303 -340 570 -635 645 -92 23 -273 33 -361 20z
m275 -357 c89 -24 151 -62 221 -133 224 -227 224 -607 0 -829 -108 -108 -213
-151 -366 -151 -147 0 -267 52 -369 161 -69 73 -116 158 -141 254 -20 77 -19
230 1 309 44 172 185 331 337 382 106 35 208 38 317 7z"/>
<path d="M7534 3080 c-50 -10 -132 -51 -156 -77 -35 -38 -58 -106 -58 -174 0
-110 22 -143 455 -667 215 -260 392 -477 393 -482 2 -6 -161 -10 -447 -10
l-451 0 0 -175 0 -175 568 0 c340 0 581 4 602 10 66 18 127 65 154 118 53 104
42 207 -34 315 -22 32 -209 263 -415 512 -206 250 -375 457 -375 460 0 3 176
5 390 5 l390 0 0 175 0 175 -487 -1 c-269 -1 -507 -5 -529 -9z"/>
</g>
</svg>
